<?xml version="1.0" encoding="utf-8" standalone="no"?>
<!DOCTYPE svg PUBLIC "-//W3C//DTD SVG 1.1//EN"
  "http://www.w3.org/Graphics/SVG/1.1/DTD/svg11.dtd">
<!-- Created with matplotlib (https://matplotlib.org/) -->
<svg height="372.96pt" version="1.1" viewBox="0 0 489.6 372.96" width="489.6pt" xmlns="http://www.w3.org/2000/svg" xmlns:xlink="http://www.w3.org/1999/xlink">
 <defs>
  <style type="text/css">
*{stroke-linecap:butt;stroke-linejoin:round;}
  </style>
 </defs>
 <g id="figure_1">
  <g id="patch_1">
   <path d="M 0 372.96 
L 489.6 372.96 
L 489.6 0 
L 0 0 
z
" style="fill:#ffffff;"/>
  </g>
  <g id="axes_1">
   <g id="patch_2">
    <path d="M 61.2 331.9344 
L 440.64 331.9344 
L 440.64 44.7552 
L 61.2 44.7552 
z
" style="fill:#ffffff;"/>
   </g>
   <g id="matplotlib.axis_1">
    <g id="xtick_1">
     <g id="line2d_1">
      <defs>
       <path d="M 0 0 
L 0 3.5 
" id="m865c5c50b5" style="stroke:#000000;stroke-width:0.8;"/>
      </defs>
      <g>
       <use style="stroke:#000000;stroke-width:0.8;" x="78.447273" xlink:href="#m865c5c50b5" y="331.9344"/>
      </g>
     </g>
     <g id="text_1">
      <!-- 0 -->
      <defs>
       <path d="M 31.78125 66.40625 
Q 24.171875 66.40625 20.328125 58.90625 
Q 16.5 51.421875 16.5 36.375 
Q 16.5 21.390625 20.328125 13.890625 
Q 24.171875 6.390625 31.78125 6.390625 
Q 39.453125 6.390625 43.28125 13.890625 
Q 47.125 21.390625 47.125 36.375 
Q 47.125 51.421875 43.28125 58.90625 
Q 39.453125 66.40625 31.78125 66.40625 
z
M 31.78125 74.21875 
Q 44.046875 74.21875 50.515625 64.515625 
Q 56.984375 54.828125 56.984375 36.375 
Q 56.984375 17.96875 50.515625 8.265625 
Q 44.046875 -1.421875 31.78125 -1.421875 
Q 19.53125 -1.421875 13.0625 8.265625 
Q 6.59375 17.96875 6.59375 36.375 
Q 6.59375 54.828125 13.0625 64.515625 
Q 19.53125 74.21875 31.78125 74.21875 
z
" id="DejaVuSans-48"/>
      </defs>
      <g transform="translate(75.266023 346.532837)scale(0.1 -0.1)">
       <use xlink:href="#DejaVuSans-48"/>
      </g>
     </g>
    </g>
    <g id="xtick_2">
     <g id="line2d_2">
      <g>
       <use style="stroke:#000000;stroke-width:0.8;" x="147.436364" xlink:href="#m865c5c50b5" y="331.9344"/>
      </g>
     </g>
     <g id="text_2">
      <!-- 2 -->
      <defs>
       <path d="M 19.1875 8.296875 
L 53.609375 8.296875 
L 53.609375 0 
L 7.328125 0 
L 7.328125 8.296875 
Q 12.9375 14.109375 22.625 23.890625 
Q 32.328125 33.6875 34.8125 36.53125 
Q 39.546875 41.84375 41.421875 45.53125 
Q 43.3125 49.21875 43.3125 52.78125 
Q 43.3125 58.59375 39.234375 62.25 
Q 35.15625 65.921875 28.609375 65.921875 
Q 23.96875 65.921875 18.8125 64.3125 
Q 13.671875 62.703125 7.8125 59.421875 
L 7.8125 69.390625 
Q 13.765625 71.78125 18.9375 73 
Q 24.125 74.21875 28.421875 74.21875 
Q 39.75 74.21875 46.484375 68.546875 
Q 53.21875 62.890625 53.21875 53.421875 
Q 53.21875 48.921875 51.53125 44.890625 
Q 49.859375 40.875 45.40625 35.40625 
Q 44.1875 33.984375 37.640625 27.21875 
Q 31.109375 20.453125 19.1875 8.296875 
z
" id="DejaVuSans-50"/>
      </defs>
      <g transform="translate(144.255114 346.532837)scale(0.1 -0.1)">
       <use xlink:href="#DejaVuSans-50"/>
      </g>
     </g>
    </g>
    <g id="xtick_3">
     <g id="line2d_3">
      <g>
       <use style="stroke:#000000;stroke-width:0.8;" x="216.425455" xlink:href="#m865c5c50b5" y="331.9344"/>
      </g>
     </g>
     <g id="text_3">
      <!-- 4 -->
      <defs>
       <path d="M 37.796875 64.3125 
L 12.890625 25.390625 
L 37.796875 25.390625 
z
M 35.203125 72.90625 
L 47.609375 72.90625 
L 47.609375 25.390625 
L 58.015625 25.390625 
L 58.015625 17.1875 
L 47.609375 17.1875 
L 47.609375 0 
L 37.796875 0 
L 37.796875 17.1875 
L 4.890625 17.1875 
L 4.890625 26.703125 
z
" id="DejaVuSans-52"/>
      </defs>
      <g transform="translate(213.244205 346.532837)scale(0.1 -0.1)">
       <use xlink:href="#DejaVuSans-52"/>
      </g>
     </g>
    </g>
    <g id="xtick_4">
     <g id="line2d_4">
      <g>
       <use style="stroke:#000000;stroke-width:0.8;" x="285.414545" xlink:href="#m865c5c50b5" y="331.9344"/>
      </g>
     </g>
     <g id="text_4">
      <!-- 6 -->
      <defs>
       <path d="M 33.015625 40.375 
Q 26.375 40.375 22.484375 35.828125 
Q 18.609375 31.296875 18.609375 23.390625 
Q 18.609375 15.53125 22.484375 10.953125 
Q 26.375 6.390625 33.015625 6.390625 
Q 39.65625 6.390625 43.53125 10.953125 
Q 47.40625 15.53125 47.40625 23.390625 
Q 47.40625 31.296875 43.53125 35.828125 
Q 39.65625 40.375 33.015625 40.375 
z
M 52.59375 71.296875 
L 52.59375 62.3125 
Q 48.875 64.0625 45.09375 64.984375 
Q 41.3125 65.921875 37.59375 65.921875 
Q 27.828125 65.921875 22.671875 59.328125 
Q 17.53125 52.734375 16.796875 39.40625 
Q 19.671875 43.65625 24.015625 45.921875 
Q 28.375 48.1875 33.59375 48.1875 
Q 44.578125 48.1875 50.953125 41.515625 
Q 57.328125 34.859375 57.328125 23.390625 
Q 57.328125 12.15625 50.6875 5.359375 
Q 44.046875 -1.421875 33.015625 -1.421875 
Q 20.359375 -1.421875 13.671875 8.265625 
Q 6.984375 17.96875 6.984375 36.375 
Q 6.984375 53.65625 15.1875 63.9375 
Q 23.390625 74.21875 37.203125 74.21875 
Q 40.921875 74.21875 44.703125 73.484375 
Q 48.484375 72.75 52.59375 71.296875 
z
" id="DejaVuSans-54"/>
      </defs>
      <g transform="translate(282.233295 346.532837)scale(0.1 -0.1)">
       <use xlink:href="#DejaVuSans-54"/>
      </g>
     </g>
    </g>
    <g id="xtick_5">
     <g id="line2d_5">
      <g>
       <use style="stroke:#000000;stroke-width:0.8;" x="354.403636" xlink:href="#m865c5c50b5" y="331.9344"/>
      </g>
     </g>
     <g id="text_5">
      <!-- 8 -->
      <defs>
       <path d="M 31.78125 34.625 
Q 24.75 34.625 20.71875 30.859375 
Q 16.703125 27.09375 16.703125 20.515625 
Q 16.703125 13.921875 20.71875 10.15625 
Q 24.75 6.390625 31.78125 6.390625 
Q 38.8125 6.390625 42.859375 10.171875 
Q 46.921875 13.96875 46.921875 20.515625 
Q 46.921875 27.09375 42.890625 30.859375 
Q 38.875 34.625 31.78125 34.625 
z
M 21.921875 38.8125 
Q 15.578125 40.375 12.03125 44.71875 
Q 8.5 49.078125 8.5 55.328125 
Q 8.5 64.0625 14.71875 69.140625 
Q 20.953125 74.21875 31.78125 74.21875 
Q 42.671875 74.21875 48.875 69.140625 
Q 55.078125 64.0625 55.078125 55.328125 
Q 55.078125 49.078125 51.53125 44.71875 
Q 48 40.375 41.703125 38.8125 
Q 48.828125 37.15625 52.796875 32.3125 
Q 56.78125 27.484375 56.78125 20.515625 
Q 56.78125 9.90625 50.3125 4.234375 
Q 43.84375 -1.421875 31.78125 -1.421875 
Q 19.734375 -1.421875 13.25 4.234375 
Q 6.78125 9.90625 6.78125 20.515625 
Q 6.78125 27.484375 10.78125 32.3125 
Q 14.796875 37.15625 21.921875 38.8125 
z
M 18.3125 54.390625 
Q 18.3125 48.734375 21.84375 45.5625 
Q 25.390625 42.390625 31.78125 42.390625 
Q 38.140625 42.390625 41.71875 45.5625 
Q 45.3125 48.734375 45.3125 54.390625 
Q 45.3125 60.0625 41.71875 63.234375 
Q 38.140625 66.40625 31.78125 66.40625 
Q 25.390625 66.40625 21.84375 63.234375 
Q 18.3125 60.0625 18.3125 54.390625 
z
" id="DejaVuSans-56"/>
      </defs>
      <g transform="translate(351.222386 346.532837)scale(0.1 -0.1)">
       <use xlink:href="#DejaVuSans-56"/>
      </g>
     </g>
    </g>
    <g id="xtick_6">
     <g id="line2d_6">
      <g>
       <use style="stroke:#000000;stroke-width:0.8;" x="423.392727" xlink:href="#m865c5c50b5" y="331.9344"/>
      </g>
     </g>
     <g id="text_6">
      <!-- 10 -->
      <defs>
       <path d="M 12.40625 8.296875 
L 28.515625 8.296875 
L 28.515625 63.921875 
L 10.984375 60.40625 
L 10.984375 69.390625 
L 28.421875 72.90625 
L 38.28125 72.90625 
L 38.28125 8.296875 
L 54.390625 8.296875 
L 54.390625 0 
L 12.40625 0 
z
" id="DejaVuSans-49"/>
      </defs>
      <g transform="translate(417.030227 346.532837)scale(0.1 -0.1)">
       <use xlink:href="#DejaVuSans-49"/>
       <use x="63.623047" xlink:href="#DejaVuSans-48"/>
      </g>
     </g>
    </g>
    <g id="text_7">
     <!-- Test set -->
     <defs>
      <path d="M -0.296875 72.90625 
L 61.375 72.90625 
L 61.375 64.59375 
L 35.5 64.59375 
L 35.5 0 
L 25.59375 0 
L 25.59375 64.59375 
L -0.296875 64.59375 
z
" id="DejaVuSans-84"/>
      <path d="M 56.203125 29.59375 
L 56.203125 25.203125 
L 14.890625 25.203125 
Q 15.484375 15.921875 20.484375 11.0625 
Q 25.484375 6.203125 34.421875 6.203125 
Q 39.59375 6.203125 44.453125 7.46875 
Q 49.3125 8.734375 54.109375 11.28125 
L 54.109375 2.78125 
Q 49.265625 0.734375 44.1875 -0.34375 
Q 39.109375 -1.421875 33.890625 -1.421875 
Q 20.796875 -1.421875 13.15625 6.1875 
Q 5.515625 13.8125 5.515625 26.8125 
Q 5.515625 40.234375 12.765625 48.109375 
Q 20.015625 56 32.328125 56 
Q 43.359375 56 49.78125 48.890625 
Q 56.203125 41.796875 56.203125 29.59375 
z
M 47.21875 32.234375 
Q 47.125 39.59375 43.09375 43.984375 
Q 39.0625 48.390625 32.421875 48.390625 
Q 24.90625 48.390625 20.390625 44.140625 
Q 15.875 39.890625 15.1875 32.171875 
z
" id="DejaVuSans-101"/>
      <path d="M 44.28125 53.078125 
L 44.28125 44.578125 
Q 40.484375 46.53125 36.375 47.5 
Q 32.28125 48.484375 27.875 48.484375 
Q 21.1875 48.484375 17.84375 46.4375 
Q 14.5 44.390625 14.5 40.28125 
Q 14.5 37.15625 16.890625 35.375 
Q 19.28125 33.59375 26.515625 31.984375 
L 29.59375 31.296875 
Q 39.15625 29.25 43.1875 25.515625 
Q 47.21875 21.78125 47.21875 15.09375 
Q 47.21875 7.46875 41.1875 3.015625 
Q 35.15625 -1.421875 24.609375 -1.421875 
Q 20.21875 -1.421875 15.453125 -0.5625 
Q 10.6875 0.296875 5.421875 2 
L 5.421875 11.28125 
Q 10.40625 8.6875 15.234375 7.390625 
Q 20.0625 6.109375 24.8125 6.109375 
Q 31.15625 6.109375 34.5625 8.28125 
Q 37.984375 10.453125 37.984375 14.40625 
Q 37.984375 18.0625 35.515625 20.015625 
Q 33.0625 21.96875 24.703125 23.78125 
L 21.578125 24.515625 
Q 13.234375 26.265625 9.515625 29.90625 
Q 5.8125 33.546875 5.8125 39.890625 
Q 5.8125 47.609375 11.28125 51.796875 
Q 16.75 56 26.8125 56 
Q 31.78125 56 36.171875 55.265625 
Q 40.578125 54.546875 44.28125 53.078125 
z
" id="DejaVuSans-115"/>
      <path d="M 18.3125 70.21875 
L 18.3125 54.6875 
L 36.8125 54.6875 
L 36.8125 47.703125 
L 18.3125 47.703125 
L 18.3125 18.015625 
Q 18.3125 11.328125 20.140625 9.421875 
Q 21.96875 7.515625 27.59375 7.515625 
L 36.8125 7.515625 
L 36.8125 0 
L 27.59375 0 
Q 17.1875 0 13.234375 3.875 
Q 9.28125 7.765625 9.28125 18.015625 
L 9.28125 47.703125 
L 2.6875 47.703125 
L 2.6875 54.6875 
L 9.28125 54.6875 
L 9.28125 70.21875 
z
" id="DejaVuSans-116"/>
      <path id="DejaVuSans-32"/>
     </defs>
     <g transform="translate(231.0075 360.210962)scale(0.1 -0.1)">
      <use xlink:href="#DejaVuSans-84"/>
      <use x="60.818359" xlink:href="#DejaVuSans-101"/>
      <use x="122.341797" xlink:href="#DejaVuSans-115"/>
      <use x="174.441406" xlink:href="#DejaVuSans-116"/>
      <use x="213.650391" xlink:href="#DejaVuSans-32"/>
      <use x="245.4375" xlink:href="#DejaVuSans-115"/>
      <use x="297.537109" xlink:href="#DejaVuSans-101"/>
      <use x="359.060547" xlink:href="#DejaVuSans-116"/>
     </g>
    </g>
   </g>
   <g id="matplotlib.axis_2">
    <g id="ytick_1">
     <g id="line2d_7">
      <defs>
       <path d="M 0 0 
L -3.5 0 
" id="mad694a122c" style="stroke:#000000;stroke-width:0.8;"/>
      </defs>
      <g>
       <use style="stroke:#000000;stroke-width:0.8;" x="61.2" xlink:href="#mad694a122c" y="304.760911"/>
      </g>
     </g>
     <g id="text_8">
      <!-- 1545.6 -->
      <defs>
       <path d="M 10.796875 72.90625 
L 49.515625 72.90625 
L 49.515625 64.59375 
L 19.828125 64.59375 
L 19.828125 46.734375 
Q 21.96875 47.46875 24.109375 47.828125 
Q 26.265625 48.1875 28.421875 48.1875 
Q 40.625 48.1875 47.75 41.5 
Q 54.890625 34.8125 54.890625 23.390625 
Q 54.890625 11.625 47.5625 5.09375 
Q 40.234375 -1.421875 26.90625 -1.421875 
Q 22.3125 -1.421875 17.546875 -0.640625 
Q 12.796875 0.140625 7.71875 1.703125 
L 7.71875 11.625 
Q 12.109375 9.234375 16.796875 8.0625 
Q 21.484375 6.890625 26.703125 6.890625 
Q 35.15625 6.890625 40.078125 11.328125 
Q 45.015625 15.765625 45.015625 23.390625 
Q 45.015625 31 40.078125 35.4375 
Q 35.15625 39.890625 26.703125 39.890625 
Q 22.75 39.890625 18.8125 39.015625 
Q 14.890625 38.140625 10.796875 36.28125 
z
" id="DejaVuSans-53"/>
       <path d="M 10.6875 12.40625 
L 21 12.40625 
L 21 0 
L 10.6875 0 
z
" id="DejaVuSans-46"/>
      </defs>
      <g transform="translate(19.209375 308.56013)scale(0.1 -0.1)">
       <use xlink:href="#DejaVuSans-49"/>
       <use x="63.623047" xlink:href="#DejaVuSans-53"/>
       <use x="127.246094" xlink:href="#DejaVuSans-52"/>
       <use x="190.869141" xlink:href="#DejaVuSans-53"/>
       <use x="254.492188" xlink:href="#DejaVuSans-46"/>
       <use x="286.279297" xlink:href="#DejaVuSans-54"/>
      </g>
     </g>
    </g>
    <g id="ytick_2">
     <g id="line2d_8">
      <g>
       <use style="stroke:#000000;stroke-width:0.8;" x="61.2" xlink:href="#mad694a122c" y="269.071268"/>
      </g>
     </g>
     <g id="text_9">
      <!-- 1545.8 -->
      <g transform="translate(19.209375 272.870487)scale(0.1 -0.1)">
       <use xlink:href="#DejaVuSans-49"/>
       <use x="63.623047" xlink:href="#DejaVuSans-53"/>
       <use x="127.246094" xlink:href="#DejaVuSans-52"/>
       <use x="190.869141" xlink:href="#DejaVuSans-53"/>
       <use x="254.492188" xlink:href="#DejaVuSans-46"/>
       <use x="286.279297" xlink:href="#DejaVuSans-56"/>
      </g>
     </g>
    </g>
    <g id="ytick_3">
     <g id="line2d_9">
      <g>
       <use style="stroke:#000000;stroke-width:0.8;" x="61.2" xlink:href="#mad694a122c" y="233.381626"/>
      </g>
     </g>
     <g id="text_10">
      <!-- 1546.0 -->
      <g transform="translate(19.209375 237.180845)scale(0.1 -0.1)">
       <use xlink:href="#DejaVuSans-49"/>
       <use x="63.623047" xlink:href="#DejaVuSans-53"/>
       <use x="127.246094" xlink:href="#DejaVuSans-52"/>
       <use x="190.869141" xlink:href="#DejaVuSans-54"/>
       <use x="254.492188" xlink:href="#DejaVuSans-46"/>
       <use x="286.279297" xlink:href="#DejaVuSans-48"/>
      </g>
     </g>
    </g>
    <g id="ytick_4">
     <g id="line2d_10">
      <g>
       <use style="stroke:#000000;stroke-width:0.8;" x="61.2" xlink:href="#mad694a122c" y="197.691984"/>
      </g>
     </g>
     <g id="text_11">
      <!-- 1546.2 -->
      <g transform="translate(19.209375 201.491202)scale(0.1 -0.1)">
       <use xlink:href="#DejaVuSans-49"/>
       <use x="63.623047" xlink:href="#DejaVuSans-53"/>
       <use x="127.246094" xlink:href="#DejaVuSans-52"/>
       <use x="190.869141" xlink:href="#DejaVuSans-54"/>
       <use x="254.492188" xlink:href="#DejaVuSans-46"/>
       <use x="286.279297" xlink:href="#DejaVuSans-50"/>
      </g>
     </g>
    </g>
    <g id="ytick_5">
     <g id="line2d_11">
      <g>
       <use style="stroke:#000000;stroke-width:0.8;" x="61.2" xlink:href="#mad694a122c" y="162.002341"/>
      </g>
     </g>
     <g id="text_12">
      <!-- 1546.4 -->
      <g transform="translate(19.209375 165.80156)scale(0.1 -0.1)">
       <use xlink:href="#DejaVuSans-49"/>
       <use x="63.623047" xlink:href="#DejaVuSans-53"/>
       <use x="127.246094" xlink:href="#DejaVuSans-52"/>
       <use x="190.869141" xlink:href="#DejaVuSans-54"/>
       <use x="254.492188" xlink:href="#DejaVuSans-46"/>
       <use x="286.279297" xlink:href="#DejaVuSans-52"/>
      </g>
     </g>
    </g>
    <g id="ytick_6">
     <g id="line2d_12">
      <g>
       <use style="stroke:#000000;stroke-width:0.8;" x="61.2" xlink:href="#mad694a122c" y="126.312699"/>
      </g>
     </g>
     <g id="text_13">
      <!-- 1546.6 -->
      <g transform="translate(19.209375 130.111917)scale(0.1 -0.1)">
       <use xlink:href="#DejaVuSans-49"/>
       <use x="63.623047" xlink:href="#DejaVuSans-53"/>
       <use x="127.246094" xlink:href="#DejaVuSans-52"/>
       <use x="190.869141" xlink:href="#DejaVuSans-54"/>
       <use x="254.492188" xlink:href="#DejaVuSans-46"/>
       <use x="286.279297" xlink:href="#DejaVuSans-54"/>
      </g>
     </g>
    </g>
    <g id="ytick_7">
     <g id="line2d_13">
      <g>
       <use style="stroke:#000000;stroke-width:0.8;" x="61.2" xlink:href="#mad694a122c" y="90.623056"/>
      </g>
     </g>
     <g id="text_14">
      <!-- 1546.8 -->
      <g transform="translate(19.209375 94.422275)scale(0.1 -0.1)">
       <use xlink:href="#DejaVuSans-49"/>
       <use x="63.623047" xlink:href="#DejaVuSans-53"/>
       <use x="127.246094" xlink:href="#DejaVuSans-52"/>
       <use x="190.869141" xlink:href="#DejaVuSans-54"/>
       <use x="254.492188" xlink:href="#DejaVuSans-46"/>
       <use x="286.279297" xlink:href="#DejaVuSans-56"/>
      </g>
     </g>
    </g>
    <g id="ytick_8">
     <g id="line2d_14">
      <g>
       <use style="stroke:#000000;stroke-width:0.8;" x="61.2" xlink:href="#mad694a122c" y="54.933414"/>
      </g>
     </g>
     <g id="text_15">
      <!-- 1547.0 -->
      <defs>
       <path d="M 8.203125 72.90625 
L 55.078125 72.90625 
L 55.078125 68.703125 
L 28.609375 0 
L 18.3125 0 
L 43.21875 64.59375 
L 8.203125 64.59375 
z
" id="DejaVuSans-55"/>
      </defs>
      <g transform="translate(19.209375 58.732633)scale(0.1 -0.1)">
       <use xlink:href="#DejaVuSans-49"/>
       <use x="63.623047" xlink:href="#DejaVuSans-53"/>
       <use x="127.246094" xlink:href="#DejaVuSans-52"/>
       <use x="190.869141" xlink:href="#DejaVuSans-55"/>
       <use x="254.492188" xlink:href="#DejaVuSans-46"/>
       <use x="286.279297" xlink:href="#DejaVuSans-48"/>
      </g>
     </g>
    </g>
    <g id="text_16">
     <!-- Wavelength -->
     <defs>
      <path d="M 3.328125 72.90625 
L 13.28125 72.90625 
L 28.609375 11.28125 
L 43.890625 72.90625 
L 54.984375 72.90625 
L 70.3125 11.28125 
L 85.59375 72.90625 
L 95.609375 72.90625 
L 77.296875 0 
L 64.890625 0 
L 49.515625 63.28125 
L 33.984375 0 
L 21.578125 0 
z
" id="DejaVuSans-87"/>
      <path d="M 34.28125 27.484375 
Q 23.390625 27.484375 19.1875 25 
Q 14.984375 22.515625 14.984375 16.5 
Q 14.984375 11.71875 18.140625 8.90625 
Q 21.296875 6.109375 26.703125 6.109375 
Q 34.1875 6.109375 38.703125 11.40625 
Q 43.21875 16.703125 43.21875 25.484375 
L 43.21875 27.484375 
z
M 52.203125 31.203125 
L 52.203125 0 
L 43.21875 0 
L 43.21875 8.296875 
Q 40.140625 3.328125 35.546875 0.953125 
Q 30.953125 -1.421875 24.3125 -1.421875 
Q 15.921875 -1.421875 10.953125 3.296875 
Q 6 8.015625 6 15.921875 
Q 6 25.140625 12.171875 29.828125 
Q 18.359375 34.515625 30.609375 34.515625 
L 43.21875 34.515625 
L 43.21875 35.40625 
Q 43.21875 41.609375 39.140625 45 
Q 35.0625 48.390625 27.6875 48.390625 
Q 23 48.390625 18.546875 47.265625 
Q 14.109375 46.140625 10.015625 43.890625 
L 10.015625 52.203125 
Q 14.9375 54.109375 19.578125 55.046875 
Q 24.21875 56 28.609375 56 
Q 40.484375 56 46.34375 49.84375 
Q 52.203125 43.703125 52.203125 31.203125 
z
" id="DejaVuSans-97"/>
      <path d="M 2.984375 54.6875 
L 12.5 54.6875 
L 29.59375 8.796875 
L 46.6875 54.6875 
L 56.203125 54.6875 
L 35.6875 0 
L 23.484375 0 
z
" id="DejaVuSans-118"/>
      <path d="M 9.421875 75.984375 
L 18.40625 75.984375 
L 18.40625 0 
L 9.421875 0 
z
" id="DejaVuSans-108"/>
      <path d="M 54.890625 33.015625 
L 54.890625 0 
L 45.90625 0 
L 45.90625 32.71875 
Q 45.90625 40.484375 42.875 44.328125 
Q 39.84375 48.1875 33.796875 48.1875 
Q 26.515625 48.1875 22.3125 43.546875 
Q 18.109375 38.921875 18.109375 30.90625 
L 18.109375 0 
L 9.078125 0 
L 9.078125 54.6875 
L 18.109375 54.6875 
L 18.109375 46.1875 
Q 21.34375 51.125 25.703125 53.5625 
Q 30.078125 56 35.796875 56 
Q 45.21875 56 50.046875 50.171875 
Q 54.890625 44.34375 54.890625 33.015625 
z
" id="DejaVuSans-110"/>
      <path d="M 45.40625 27.984375 
Q 45.40625 37.75 41.375 43.109375 
Q 37.359375 48.484375 30.078125 48.484375 
Q 22.859375 48.484375 18.828125 43.109375 
Q 14.796875 37.75 14.796875 27.984375 
Q 14.796875 18.265625 18.828125 12.890625 
Q 22.859375 7.515625 30.078125 7.515625 
Q 37.359375 7.515625 41.375 12.890625 
Q 45.40625 18.265625 45.40625 27.984375 
z
M 54.390625 6.78125 
Q 54.390625 -7.171875 48.1875 -13.984375 
Q 42 -20.796875 29.203125 -20.796875 
Q 24.46875 -20.796875 20.265625 -20.09375 
Q 16.0625 -19.390625 12.109375 -17.921875 
L 12.109375 -9.1875 
Q 16.0625 -11.328125 19.921875 -12.34375 
Q 23.78125 -13.375 27.78125 -13.375 
Q 36.625 -13.375 41.015625 -8.765625 
Q 45.40625 -4.15625 45.40625 5.171875 
L 45.40625 9.625 
Q 42.625 4.78125 38.28125 2.390625 
Q 33.9375 0 27.875 0 
Q 17.828125 0 11.671875 7.65625 
Q 5.515625 15.328125 5.515625 27.984375 
Q 5.515625 40.671875 11.671875 48.328125 
Q 17.828125 56 27.875 56 
Q 33.9375 56 38.28125 53.609375 
Q 42.625 51.21875 45.40625 46.390625 
L 45.40625 54.6875 
L 54.390625 54.6875 
z
" id="DejaVuSans-103"/>
      <path d="M 54.890625 33.015625 
L 54.890625 0 
L 45.90625 0 
L 45.90625 32.71875 
Q 45.90625 40.484375 42.875 44.328125 
Q 39.84375 48.1875 33.796875 48.1875 
Q 26.515625 48.1875 22.3125 43.546875 
Q 18.109375 38.921875 18.109375 30.90625 
L 18.109375 0 
L 9.078125 0 
L 9.078125 75.984375 
L 18.109375 75.984375 
L 18.109375 46.1875 
Q 21.34375 51.125 25.703125 53.5625 
Q 30.078125 56 35.796875 56 
Q 45.21875 56 50.046875 50.171875 
Q 54.890625 44.34375 54.890625 33.015625 
z
" id="DejaVuSans-104"/>
     </defs>
     <g transform="translate(13.129687 218.321362)rotate(-90)scale(0.1 -0.1)">
      <use xlink:href="#DejaVuSans-87"/>
      <use x="98.783203" xlink:href="#DejaVuSans-97"/>
      <use x="160.0625" xlink:href="#DejaVuSans-118"/>
      <use x="219.242188" xlink:href="#DejaVuSans-101"/>
      <use x="280.765625" xlink:href="#DejaVuSans-108"/>
      <use x="308.548828" xlink:href="#DejaVuSans-101"/>
      <use x="370.072266" xlink:href="#DejaVuSans-110"/>
      <use x="433.451172" xlink:href="#DejaVuSans-103"/>
      <use x="496.927734" xlink:href="#DejaVuSans-116"/>
      <use x="536.136719" xlink:href="#DejaVuSans-104"/>
     </g>
    </g>
   </g>
   <g id="line2d_15">
    <path clip-path="url(#pc42b55182b)" d="M 78.447273 318.683496 
L 112.941818 292.745923 
L 147.436364 266.80835 
L 181.930909 240.870778 
L 216.425455 214.933205 
L 250.92 188.995632 
L 285.414545 163.05806 
L 319.909091 137.120487 
L 354.403636 111.182914 
L 388.898182 85.245342 
L 423.392727 59.307769 
" style="fill:none;stroke:#808080;stroke-dasharray:5.55,2.4;stroke-dashoffset:0;stroke-width:1.5;"/>
   </g>
   <g id="line2d_16">
    <path clip-path="url(#pc42b55182b)" d="M 78.447273 231.85554 
L 112.941818 231.646875 
L 147.436364 231.43821 
L 181.930909 231.229545 
L 216.425455 231.02088 
L 250.92 230.812215 
L 285.414545 230.60355 
L 319.909091 230.394885 
L 354.403636 230.18622 
L 388.898182 229.977555 
L 423.392727 229.76889 
" style="fill:none;stroke:#808080;stroke-dasharray:5.55,2.4;stroke-dashoffset:0;stroke-width:1.5;"/>
   </g>
   <g id="line2d_17">
    <path clip-path="url(#pc42b55182b)" d="M 78.447273 138.430709 
L 112.941818 138.295663 
L 147.436364 138.160618 
L 181.930909 138.025572 
L 216.425455 137.890526 
L 250.92 137.755481 
L 285.414545 137.620435 
L 319.909091 137.485389 
L 354.403636 137.350344 
L 388.898182 137.215298 
L 423.392727 137.080253 
" style="fill:none;stroke:#808080;stroke-dasharray:5.55,2.4;stroke-dashoffset:0;stroke-width:1.5;"/>
   </g>
   <g id="line2d_18">
    <path clip-path="url(#pc42b55182b)" d="M 78.447273 318.8808 
L 112.941818 292.414177 
L 147.436364 268.387275 
L 181.930909 237.193691 
L 216.425455 216.020392 
L 250.92 192.821254 
L 285.414545 164.611972 
L 319.909091 140.432588 
L 354.403636 115.49079 
L 388.898182 85.713116 
L 423.392727 57.8088 
" style="fill:none;stroke:#1f77b4;stroke-linecap:square;stroke-width:1.5;"/>
   </g>
   <g id="line2d_19">
    <path clip-path="url(#pc42b55182b)" d="M 78.447273 231.835017 
L 112.941818 231.137953 
L 147.436364 229.896309 
L 181.930909 236.866943 
L 216.425455 227.543721 
L 250.92 233.27271 
L 285.414545 230.549806 
L 319.909091 230.615156 
L 354.403636 231.377569 
L 388.898182 229.264596 
L 423.392727 230.462673 
" style="fill:none;stroke:#ff7f0e;stroke-linecap:square;stroke-width:1.5;"/>
   </g>
   <g id="line2d_20">
    <path clip-path="url(#pc42b55182b)" d="M 78.447273 138.428531 
L 112.941818 138.62458 
L 147.436364 138.55923 
L 181.930909 137.056187 
L 216.425455 136.816572 
L 250.92 135.749193 
L 285.414545 137.034404 
L 319.909091 140.476154 
L 354.403636 138.406747 
L 388.898182 140.280105 
L 423.392727 136.707656 
" style="fill:none;stroke:#2ca02c;stroke-linecap:square;stroke-width:1.5;"/>
   </g>
   <g id="line2d_21">
    <defs>
     <path d="M 0 3 
C 0.795609 3 1.55874 2.683901 2.12132 2.12132 
C 2.683901 1.55874 3 0.795609 3 0 
C 3 -0.795609 2.683901 -1.55874 2.12132 -2.12132 
C 1.55874 -2.683901 0.795609 -3 0 -3 
C -0.795609 -3 -1.55874 -2.683901 -2.12132 -2.12132 
C -2.683901 -1.55874 -3 -0.795609 -3 0 
C -3 0.795609 -2.683901 1.55874 -2.12132 2.12132 
C -1.55874 2.683901 -0.795609 3 0 3 
z
" id="m3bb409954a" style="stroke:#d62728;"/>
    </defs>
    <g clip-path="url(#pc42b55182b)">
     <use style="fill:#d62728;stroke:#d62728;" x="78.447273" xlink:href="#m3bb409954a" y="318.859017"/>
     <use style="fill:#d62728;stroke:#d62728;" x="112.941818" xlink:href="#m3bb409954a" y="292.43596"/>
     <use style="fill:#d62728;stroke:#d62728;" x="147.436364" xlink:href="#m3bb409954a" y="268.321925"/>
     <use style="fill:#d62728;stroke:#d62728;" x="181.930909" xlink:href="#m3bb409954a" y="238.086804"/>
     <use style="fill:#d62728;stroke:#d62728;" x="216.425455" xlink:href="#m3bb409954a" y="215.824343"/>
     <use style="fill:#d62728;stroke:#d62728;" x="250.92" xlink:href="#m3bb409954a" y="192.86482"/>
     <use style="fill:#d62728;stroke:#d62728;" x="285.414545" xlink:href="#m3bb409954a" y="164.568406"/>
     <use style="fill:#d62728;stroke:#d62728;" x="319.909091" xlink:href="#m3bb409954a" y="140.454371"/>
     <use style="fill:#d62728;stroke:#d62728;" x="354.403636" xlink:href="#m3bb409954a" y="115.469007"/>
     <use style="fill:#d62728;stroke:#d62728;" x="388.898182" xlink:href="#m3bb409954a" y="85.713116"/>
     <use style="fill:#d62728;stroke:#d62728;" x="423.392727" xlink:href="#m3bb409954a" y="57.8088"/>
    </g>
   </g>
   <g id="line2d_22">
    <defs>
     <path d="M 0 3 
C 0.795609 3 1.55874 2.683901 2.12132 2.12132 
C 2.683901 1.55874 3 0.795609 3 0 
C 3 -0.795609 2.683901 -1.55874 2.12132 -2.12132 
C 1.55874 -2.683901 0.795609 -3 0 -3 
C -0.795609 -3 -1.55874 -2.683901 -2.12132 -2.12132 
C -2.683901 -1.55874 -3 -0.795609 -3 0 
C -3 0.795609 -2.683901 1.55874 -2.12132 2.12132 
C -1.55874 2.683901 -0.795609 3 0 3 
z
" id="m0ff986f823" style="stroke:#9467bd;"/>
    </defs>
    <g clip-path="url(#pc42b55182b)">
     <use style="fill:#9467bd;stroke:#9467bd;" x="78.447273" xlink:href="#m0ff986f823" y="231.813234"/>
     <use style="fill:#9467bd;stroke:#9467bd;" x="112.941818" xlink:href="#m0ff986f823" y="231.159737"/>
     <use style="fill:#9467bd;stroke:#9467bd;" x="147.436364" xlink:href="#m0ff986f823" y="229.83096"/>
     <use style="fill:#9467bd;stroke:#9467bd;" x="181.930909" xlink:href="#m0ff986f823" y="237.542223"/>
     <use style="fill:#9467bd;stroke:#9467bd;" x="216.425455" xlink:href="#m0ff986f823" y="227.391238"/>
     <use style="fill:#9467bd;stroke:#9467bd;" x="250.92" xlink:href="#m0ff986f823" y="233.294493"/>
     <use style="fill:#9467bd;stroke:#9467bd;" x="285.414545" xlink:href="#m0ff986f823" y="230.528023"/>
     <use style="fill:#9467bd;stroke:#9467bd;" x="319.909091" xlink:href="#m0ff986f823" y="230.615156"/>
     <use style="fill:#9467bd;stroke:#9467bd;" x="354.403636" xlink:href="#m0ff986f823" y="231.377569"/>
     <use style="fill:#9467bd;stroke:#9467bd;" x="388.898182" xlink:href="#m0ff986f823" y="229.264596"/>
     <use style="fill:#9467bd;stroke:#9467bd;" x="423.392727" xlink:href="#m0ff986f823" y="230.462673"/>
    </g>
   </g>
   <g id="line2d_23">
    <defs>
     <path d="M 0 3 
C 0.795609 3 1.55874 2.683901 2.12132 2.12132 
C 2.683901 1.55874 3 0.795609 3 0 
C 3 -0.795609 2.683901 -1.55874 2.12132 -2.12132 
C 1.55874 -2.683901 0.795609 -3 0 -3 
C -0.795609 -3 -1.55874 -2.683901 -2.12132 -2.12132 
C -2.683901 -1.55874 -3 -0.795609 -3 0 
C -3 0.795609 -2.683901 1.55874 -2.12132 2.12132 
C -1.55874 2.683901 -0.795609 3 0 3 
z
" id="ma620388fe0" style="stroke:#8c564b;"/>
    </defs>
    <g clip-path="url(#pc42b55182b)">
     <use style="fill:#8c564b;stroke:#8c564b;" x="78.447273" xlink:href="#ma620388fe0" y="138.406747"/>
     <use style="fill:#8c564b;stroke:#8c564b;" x="112.941818" xlink:href="#ma620388fe0" y="138.646363"/>
     <use style="fill:#8c564b;stroke:#8c564b;" x="147.436364" xlink:href="#ma620388fe0" y="138.49388"/>
     <use style="fill:#8c564b;stroke:#8c564b;" x="181.930909" xlink:href="#ma620388fe0" y="137.8186"/>
     <use style="fill:#8c564b;stroke:#8c564b;" x="216.425455" xlink:href="#ma620388fe0" y="136.664089"/>
     <use style="fill:#8c564b;stroke:#8c564b;" x="250.92" xlink:href="#ma620388fe0" y="135.79276"/>
     <use style="fill:#8c564b;stroke:#8c564b;" x="285.414545" xlink:href="#ma620388fe0" y="137.012621"/>
     <use style="fill:#8c564b;stroke:#8c564b;" x="319.909091" xlink:href="#ma620388fe0" y="140.476154"/>
     <use style="fill:#8c564b;stroke:#8c564b;" x="354.403636" xlink:href="#ma620388fe0" y="138.406747"/>
     <use style="fill:#8c564b;stroke:#8c564b;" x="388.898182" xlink:href="#ma620388fe0" y="140.280105"/>
     <use style="fill:#8c564b;stroke:#8c564b;" x="423.392727" xlink:href="#ma620388fe0" y="136.707656"/>
    </g>
   </g>
   <g id="line2d_24">
    <path clip-path="url(#pc42b55182b)" d="M 78.447273 318.8808 
L 112.941818 292.414177 
L 147.436364 268.387275 
L 181.930909 237.193691 
L 216.425455 216.020392 
L 250.92 192.821254 
L 285.414545 164.611972 
L 319.909091 140.432588 
L 354.403636 115.49079 
L 388.898182 85.713116 
L 423.392727 57.8088 
" style="fill:none;stroke:#e377c2;stroke-linecap:square;stroke-width:1.5;"/>
   </g>
   <g id="line2d_25">
    <path clip-path="url(#pc42b55182b)" d="M 78.447273 231.835017 
L 112.941818 231.137953 
L 147.436364 229.896309 
L 181.930909 236.888726 
L 216.425455 227.521937 
L 250.92 233.27271 
L 285.414545 230.549806 
L 319.909091 230.615156 
L 354.403636 231.377569 
L 388.898182 229.264596 
L 423.392727 230.462673 
" style="fill:none;stroke:#7f7f7f;stroke-linecap:square;stroke-width:1.5;"/>
   </g>
   <g id="line2d_26">
    <path clip-path="url(#pc42b55182b)" d="M 78.447273 138.428531 
L 112.941818 138.62458 
L 147.436364 138.55923 
L 181.930909 137.056187 
L 216.425455 136.816572 
L 250.92 135.749193 
L 285.414545 137.034404 
L 319.909091 140.476154 
L 354.403636 138.406747 
L 388.898182 140.280105 
L 423.392727 136.707656 
" style="fill:none;stroke:#bcbd22;stroke-linecap:square;stroke-width:1.5;"/>
   </g>
   <g id="line2d_27">
    <defs>
     <path d="M 0 3 
C 0.795609 3 1.55874 2.683901 2.12132 2.12132 
C 2.683901 1.55874 3 0.795609 3 0 
C 3 -0.795609 2.683901 -1.55874 2.12132 -2.12132 
C 1.55874 -2.683901 0.795609 -3 0 -3 
C -0.795609 -3 -1.55874 -2.683901 -2.12132 -2.12132 
C -2.683901 -1.55874 -3 -0.795609 -3 0 
C -3 0.795609 -2.683901 1.55874 -2.12132 2.12132 
C -1.55874 2.683901 -0.795609 3 0 3 
z
" id="mfe124cd9fd" style="stroke:#17becf;"/>
    </defs>
    <g clip-path="url(#pc42b55182b)">
     <use style="fill:#17becf;stroke:#17becf;" x="78.447273" xlink:href="#mfe124cd9fd" y="318.859017"/>
     <use style="fill:#17becf;stroke:#17becf;" x="112.941818" xlink:href="#mfe124cd9fd" y="292.43596"/>
     <use style="fill:#17becf;stroke:#17becf;" x="147.436364" xlink:href="#mfe124cd9fd" y="268.321925"/>
     <use style="fill:#17becf;stroke:#17becf;" x="181.930909" xlink:href="#mfe124cd9fd" y="238.086804"/>
     <use style="fill:#17becf;stroke:#17becf;" x="216.425455" xlink:href="#mfe124cd9fd" y="215.824343"/>
     <use style="fill:#17becf;stroke:#17becf;" x="250.92" xlink:href="#mfe124cd9fd" y="192.86482"/>
     <use style="fill:#17becf;stroke:#17becf;" x="285.414545" xlink:href="#mfe124cd9fd" y="164.568406"/>
     <use style="fill:#17becf;stroke:#17becf;" x="319.909091" xlink:href="#mfe124cd9fd" y="140.454371"/>
     <use style="fill:#17becf;stroke:#17becf;" x="354.403636" xlink:href="#mfe124cd9fd" y="115.469007"/>
     <use style="fill:#17becf;stroke:#17becf;" x="388.898182" xlink:href="#mfe124cd9fd" y="85.713116"/>
     <use style="fill:#17becf;stroke:#17becf;" x="423.392727" xlink:href="#mfe124cd9fd" y="57.8088"/>
    </g>
   </g>
   <g id="line2d_28">
    <defs>
     <path d="M 0 3 
C 0.795609 3 1.55874 2.683901 2.12132 2.12132 
C 2.683901 1.55874 3 0.795609 3 0 
C 3 -0.795609 2.683901 -1.55874 2.12132 -2.12132 
C 1.55874 -2.683901 0.795609 -3 0 -3 
C -0.795609 -3 -1.55874 -2.683901 -2.12132 -2.12132 
C -2.683901 -1.55874 -3 -0.795609 -3 0 
C -3 0.795609 -2.683901 1.55874 -2.12132 2.12132 
C -1.55874 2.683901 -0.795609 3 0 3 
z
" id="m7bf583b53f" style="stroke:#1f77b4;"/>
    </defs>
    <g clip-path="url(#pc42b55182b)">
     <use style="fill:#1f77b4;stroke:#1f77b4;" x="78.447273" xlink:href="#m7bf583b53f" y="231.813234"/>
     <use style="fill:#1f77b4;stroke:#1f77b4;" x="112.941818" xlink:href="#m7bf583b53f" y="231.159737"/>
     <use style="fill:#1f77b4;stroke:#1f77b4;" x="147.436364" xlink:href="#m7bf583b53f" y="229.83096"/>
     <use style="fill:#1f77b4;stroke:#1f77b4;" x="181.930909" xlink:href="#m7bf583b53f" y="237.542223"/>
     <use style="fill:#1f77b4;stroke:#1f77b4;" x="216.425455" xlink:href="#m7bf583b53f" y="227.391238"/>
     <use style="fill:#1f77b4;stroke:#1f77b4;" x="250.92" xlink:href="#m7bf583b53f" y="233.294493"/>
     <use style="fill:#1f77b4;stroke:#1f77b4;" x="285.414545" xlink:href="#m7bf583b53f" y="230.528023"/>
     <use style="fill:#1f77b4;stroke:#1f77b4;" x="319.909091" xlink:href="#m7bf583b53f" y="230.615156"/>
     <use style="fill:#1f77b4;stroke:#1f77b4;" x="354.403636" xlink:href="#m7bf583b53f" y="231.377569"/>
     <use style="fill:#1f77b4;stroke:#1f77b4;" x="388.898182" xlink:href="#m7bf583b53f" y="229.264596"/>
     <use style="fill:#1f77b4;stroke:#1f77b4;" x="423.392727" xlink:href="#m7bf583b53f" y="230.462673"/>
    </g>
   </g>
   <g id="line2d_29">
    <defs>
     <path d="M 0 3 
C 0.795609 3 1.55874 2.683901 2.12132 2.12132 
C 2.683901 1.55874 3 0.795609 3 0 
C 3 -0.795609 2.683901 -1.55874 2.12132 -2.12132 
C 1.55874 -2.683901 0.795609 -3 0 -3 
C -0.795609 -3 -1.55874 -2.683901 -2.12132 -2.12132 
C -2.683901 -1.55874 -3 -0.795609 -3 0 
C -3 0.795609 -2.683901 1.55874 -2.12132 2.12132 
C -1.55874 2.683901 -0.795609 3 0 3 
z
" id="me97010a3cf" style="stroke:#ff7f0e;"/>
    </defs>
    <g clip-path="url(#pc42b55182b)">
     <use style="fill:#ff7f0e;stroke:#ff7f0e;" x="78.447273" xlink:href="#me97010a3cf" y="138.406747"/>
     <use style="fill:#ff7f0e;stroke:#ff7f0e;" x="112.941818" xlink:href="#me97010a3cf" y="138.646363"/>
     <use style="fill:#ff7f0e;stroke:#ff7f0e;" x="147.436364" xlink:href="#me97010a3cf" y="138.49388"/>
     <use style="fill:#ff7f0e;stroke:#ff7f0e;" x="181.930909" xlink:href="#me97010a3cf" y="137.8186"/>
     <use style="fill:#ff7f0e;stroke:#ff7f0e;" x="216.425455" xlink:href="#me97010a3cf" y="136.664089"/>
     <use style="fill:#ff7f0e;stroke:#ff7f0e;" x="250.92" xlink:href="#me97010a3cf" y="135.79276"/>
     <use style="fill:#ff7f0e;stroke:#ff7f0e;" x="285.414545" xlink:href="#me97010a3cf" y="137.012621"/>
     <use style="fill:#ff7f0e;stroke:#ff7f0e;" x="319.909091" xlink:href="#me97010a3cf" y="140.476154"/>
     <use style="fill:#ff7f0e;stroke:#ff7f0e;" x="354.403636" xlink:href="#me97010a3cf" y="138.406747"/>
     <use style="fill:#ff7f0e;stroke:#ff7f0e;" x="388.898182" xlink:href="#me97010a3cf" y="140.280105"/>
     <use style="fill:#ff7f0e;stroke:#ff7f0e;" x="423.392727" xlink:href="#me97010a3cf" y="136.707656"/>
    </g>
   </g>
   <g id="patch_3">
    <path d="M 61.2 331.9344 
L 61.2 44.7552 
" style="fill:none;stroke:#000000;stroke-linecap:square;stroke-linejoin:miter;stroke-width:0.8;"/>
   </g>
   <g id="patch_4">
    <path d="M 440.64 331.9344 
L 440.64 44.7552 
" style="fill:none;stroke:#000000;stroke-linecap:square;stroke-linejoin:miter;stroke-width:0.8;"/>
   </g>
   <g id="patch_5">
    <path d="M 61.2 331.9344 
L 440.64 331.9344 
" style="fill:none;stroke:#000000;stroke-linecap:square;stroke-linejoin:miter;stroke-width:0.8;"/>
   </g>
   <g id="patch_6">
    <path d="M 61.2 44.7552 
L 440.64 44.7552 
" style="fill:none;stroke:#000000;stroke-linecap:square;stroke-linejoin:miter;stroke-width:0.8;"/>
   </g>
   <g id="text_17">
    <!-- 298 -->
    <defs>
     <path d="M 10.984375 1.515625 
L 10.984375 10.5 
Q 14.703125 8.734375 18.5 7.8125 
Q 22.3125 6.890625 25.984375 6.890625 
Q 35.75 6.890625 40.890625 13.453125 
Q 46.046875 20.015625 46.78125 33.40625 
Q 43.953125 29.203125 39.59375 26.953125 
Q 35.25 24.703125 29.984375 24.703125 
Q 19.046875 24.703125 12.671875 31.3125 
Q 6.296875 37.9375 6.296875 49.421875 
Q 6.296875 60.640625 12.9375 67.421875 
Q 19.578125 74.21875 30.609375 74.21875 
Q 43.265625 74.21875 49.921875 64.515625 
Q 56.59375 54.828125 56.59375 36.375 
Q 56.59375 19.140625 48.40625 8.859375 
Q 40.234375 -1.421875 26.421875 -1.421875 
Q 22.703125 -1.421875 18.890625 -0.6875 
Q 15.09375 0.046875 10.984375 1.515625 
z
M 30.609375 32.421875 
Q 37.25 32.421875 41.125 36.953125 
Q 45.015625 41.5 45.015625 49.421875 
Q 45.015625 57.28125 41.125 61.84375 
Q 37.25 66.40625 30.609375 66.40625 
Q 23.96875 66.40625 20.09375 61.84375 
Q 16.21875 57.28125 16.21875 49.421875 
Q 16.21875 41.5 20.09375 36.953125 
Q 23.96875 32.421875 30.609375 32.421875 
z
" id="DejaVuSans-57"/>
    </defs>
    <g transform="translate(239.4675 38.7552)scale(0.12 -0.12)">
     <use xlink:href="#DejaVuSans-50"/>
     <use x="63.623047" xlink:href="#DejaVuSans-57"/>
     <use x="127.246094" xlink:href="#DejaVuSans-56"/>
    </g>
   </g>
   <g id="legend_1">
    <g id="patch_7">
     <path d="M 357.111875 326.9344 
L 433.64 326.9344 
Q 435.64 326.9344 435.64 324.9344 
L 435.64 237.86565 
Q 435.64 235.86565 433.64 235.86565 
L 357.111875 235.86565 
Q 355.111875 235.86565 355.111875 237.86565 
L 355.111875 324.9344 
Q 355.111875 326.9344 357.111875 326.9344 
z
" style="fill:#ffffff;opacity:0.8;stroke:#cccccc;stroke-linejoin:miter;"/>
    </g>
    <g id="line2d_30">
     <path d="M 359.111875 243.964088 
L 379.111875 243.964088 
" style="fill:none;stroke:#1f77b4;stroke-linecap:square;stroke-width:1.5;"/>
    </g>
    <g id="line2d_31"/>
    <g id="text_18">
     <!-- ML-FBG1 -->
     <defs>
      <path d="M 9.8125 72.90625 
L 24.515625 72.90625 
L 43.109375 23.296875 
L 61.8125 72.90625 
L 76.515625 72.90625 
L 76.515625 0 
L 66.890625 0 
L 66.890625 64.015625 
L 48.09375 14.015625 
L 38.1875 14.015625 
L 19.390625 64.015625 
L 19.390625 0 
L 9.8125 0 
z
" id="DejaVuSans-77"/>
      <path d="M 9.8125 72.90625 
L 19.671875 72.90625 
L 19.671875 8.296875 
L 55.171875 8.296875 
L 55.171875 0 
L 9.8125 0 
z
" id="DejaVuSans-76"/>
      <path d="M 4.890625 31.390625 
L 31.203125 31.390625 
L 31.203125 23.390625 
L 4.890625 23.390625 
z
" id="DejaVuSans-45"/>
      <path d="M 9.8125 72.90625 
L 51.703125 72.90625 
L 51.703125 64.59375 
L 19.671875 64.59375 
L 19.671875 43.109375 
L 48.578125 43.109375 
L 48.578125 34.8125 
L 19.671875 34.8125 
L 19.671875 0 
L 9.8125 0 
z
" id="DejaVuSans-70"/>
      <path d="M 19.671875 34.8125 
L 19.671875 8.109375 
L 35.5 8.109375 
Q 43.453125 8.109375 47.28125 11.40625 
Q 51.125 14.703125 51.125 21.484375 
Q 51.125 28.328125 47.28125 31.5625 
Q 43.453125 34.8125 35.5 34.8125 
z
M 19.671875 64.796875 
L 19.671875 42.828125 
L 34.28125 42.828125 
Q 41.5 42.828125 45.03125 45.53125 
Q 48.578125 48.25 48.578125 53.8125 
Q 48.578125 59.328125 45.03125 62.0625 
Q 41.5 64.796875 34.28125 64.796875 
z
M 9.8125 72.90625 
L 35.015625 72.90625 
Q 46.296875 72.90625 52.390625 68.21875 
Q 58.5 63.53125 58.5 54.890625 
Q 58.5 48.1875 55.375 44.234375 
Q 52.25 40.28125 46.1875 39.3125 
Q 53.46875 37.75 57.5 32.78125 
Q 61.53125 27.828125 61.53125 20.40625 
Q 61.53125 10.640625 54.890625 5.3125 
Q 48.25 0 35.984375 0 
L 9.8125 0 
z
" id="DejaVuSans-66"/>
      <path d="M 59.515625 10.40625 
L 59.515625 29.984375 
L 43.40625 29.984375 
L 43.40625 38.09375 
L 69.28125 38.09375 
L 69.28125 6.78125 
Q 63.578125 2.734375 56.6875 0.65625 
Q 49.8125 -1.421875 42 -1.421875 
Q 24.90625 -1.421875 15.25 8.5625 
Q 5.609375 18.5625 5.609375 36.375 
Q 5.609375 54.25 15.25 64.234375 
Q 24.90625 74.21875 42 74.21875 
Q 49.125 74.21875 55.546875 72.453125 
Q 61.96875 70.703125 67.390625 67.28125 
L 67.390625 56.78125 
Q 61.921875 61.421875 55.765625 63.765625 
Q 49.609375 66.109375 42.828125 66.109375 
Q 29.4375 66.109375 22.71875 58.640625 
Q 16.015625 51.171875 16.015625 36.375 
Q 16.015625 21.625 22.71875 14.15625 
Q 29.4375 6.6875 42.828125 6.6875 
Q 48.046875 6.6875 52.140625 7.59375 
Q 56.25 8.5 59.515625 10.40625 
z
" id="DejaVuSans-71"/>
     </defs>
     <g transform="translate(387.111875 247.464088)scale(0.1 -0.1)">
      <use xlink:href="#DejaVuSans-77"/>
      <use x="86.279297" xlink:href="#DejaVuSans-76"/>
      <use x="141.976562" xlink:href="#DejaVuSans-45"/>
      <use x="178.060547" xlink:href="#DejaVuSans-70"/>
      <use x="235.580078" xlink:href="#DejaVuSans-66"/>
      <use x="304.167969" xlink:href="#DejaVuSans-71"/>
      <use x="381.658203" xlink:href="#DejaVuSans-49"/>
     </g>
    </g>
    <g id="line2d_32">
     <path d="M 359.111875 258.642213 
L 379.111875 258.642213 
" style="fill:none;stroke:#ff7f0e;stroke-linecap:square;stroke-width:1.5;"/>
    </g>
    <g id="line2d_33"/>
    <g id="text_19">
     <!-- ML-FBG2 -->
     <g transform="translate(387.111875 262.142213)scale(0.1 -0.1)">
      <use xlink:href="#DejaVuSans-77"/>
      <use x="86.279297" xlink:href="#DejaVuSans-76"/>
      <use x="141.976562" xlink:href="#DejaVuSans-45"/>
      <use x="178.060547" xlink:href="#DejaVuSans-70"/>
      <use x="235.580078" xlink:href="#DejaVuSans-66"/>
      <use x="304.167969" xlink:href="#DejaVuSans-71"/>
      <use x="381.658203" xlink:href="#DejaVuSans-50"/>
     </g>
    </g>
    <g id="line2d_34">
     <path d="M 359.111875 273.320337 
L 379.111875 273.320337 
" style="fill:none;stroke:#2ca02c;stroke-linecap:square;stroke-width:1.5;"/>
    </g>
    <g id="line2d_35"/>
    <g id="text_20">
     <!-- ML-FBG3 -->
     <defs>
      <path d="M 40.578125 39.3125 
Q 47.65625 37.796875 51.625 33 
Q 55.609375 28.21875 55.609375 21.1875 
Q 55.609375 10.40625 48.1875 4.484375 
Q 40.765625 -1.421875 27.09375 -1.421875 
Q 22.515625 -1.421875 17.65625 -0.515625 
Q 12.796875 0.390625 7.625 2.203125 
L 7.625 11.71875 
Q 11.71875 9.328125 16.59375 8.109375 
Q 21.484375 6.890625 26.8125 6.890625 
Q 36.078125 6.890625 40.9375 10.546875 
Q 45.796875 14.203125 45.796875 21.1875 
Q 45.796875 27.640625 41.28125 31.265625 
Q 36.765625 34.90625 28.71875 34.90625 
L 20.21875 34.90625 
L 20.21875 43.015625 
L 29.109375 43.015625 
Q 36.375 43.015625 40.234375 45.921875 
Q 44.09375 48.828125 44.09375 54.296875 
Q 44.09375 59.90625 40.109375 62.90625 
Q 36.140625 65.921875 28.71875 65.921875 
Q 24.65625 65.921875 20.015625 65.03125 
Q 15.375 64.15625 9.8125 62.3125 
L 9.8125 71.09375 
Q 15.4375 72.65625 20.34375 73.4375 
Q 25.25 74.21875 29.59375 74.21875 
Q 40.828125 74.21875 47.359375 69.109375 
Q 53.90625 64.015625 53.90625 55.328125 
Q 53.90625 49.265625 50.4375 45.09375 
Q 46.96875 40.921875 40.578125 39.3125 
z
" id="DejaVuSans-51"/>
     </defs>
     <g transform="translate(387.111875 276.820337)scale(0.1 -0.1)">
      <use xlink:href="#DejaVuSans-77"/>
      <use x="86.279297" xlink:href="#DejaVuSans-76"/>
      <use x="141.976562" xlink:href="#DejaVuSans-45"/>
      <use x="178.060547" xlink:href="#DejaVuSans-70"/>
      <use x="235.580078" xlink:href="#DejaVuSans-66"/>
      <use x="304.167969" xlink:href="#DejaVuSans-71"/>
      <use x="381.658203" xlink:href="#DejaVuSans-51"/>
     </g>
    </g>
    <g id="line2d_36"/>
    <g id="line2d_37">
     <g>
      <use style="fill:#d62728;stroke:#d62728;" x="369.111875" xlink:href="#m3bb409954a" y="287.998463"/>
     </g>
    </g>
    <g id="text_21">
     <!-- DE-FBG1 -->
     <defs>
      <path d="M 19.671875 64.796875 
L 19.671875 8.109375 
L 31.59375 8.109375 
Q 46.6875 8.109375 53.6875 14.9375 
Q 60.6875 21.78125 60.6875 36.53125 
Q 60.6875 51.171875 53.6875 57.984375 
Q 46.6875 64.796875 31.59375 64.796875 
z
M 9.8125 72.90625 
L 30.078125 72.90625 
Q 51.265625 72.90625 61.171875 64.09375 
Q 71.09375 55.28125 71.09375 36.53125 
Q 71.09375 17.671875 61.125 8.828125 
Q 51.171875 0 30.078125 0 
L 9.8125 0 
z
" id="DejaVuSans-68"/>
      <path d="M 9.8125 72.90625 
L 55.90625 72.90625 
L 55.90625 64.59375 
L 19.671875 64.59375 
L 19.671875 43.015625 
L 54.390625 43.015625 
L 54.390625 34.71875 
L 19.671875 34.71875 
L 19.671875 8.296875 
L 56.78125 8.296875 
L 56.78125 0 
L 9.8125 0 
z
" id="DejaVuSans-69"/>
     </defs>
     <g transform="translate(387.111875 291.498463)scale(0.1 -0.1)">
      <use xlink:href="#DejaVuSans-68"/>
      <use x="77.001953" xlink:href="#DejaVuSans-69"/>
      <use x="140.185547" xlink:href="#DejaVuSans-45"/>
      <use x="176.269531" xlink:href="#DejaVuSans-70"/>
      <use x="233.789062" xlink:href="#DejaVuSans-66"/>
      <use x="302.376953" xlink:href="#DejaVuSans-71"/>
      <use x="379.867188" xlink:href="#DejaVuSans-49"/>
     </g>
    </g>
    <g id="line2d_38"/>
    <g id="line2d_39">
     <g>
      <use style="fill:#9467bd;stroke:#9467bd;" x="369.111875" xlink:href="#m0ff986f823" y="302.676587"/>
     </g>
    </g>
    <g id="text_22">
     <!-- DE-FBG2 -->
     <g transform="translate(387.111875 306.176587)scale(0.1 -0.1)">
      <use xlink:href="#DejaVuSans-68"/>
      <use x="77.001953" xlink:href="#DejaVuSans-69"/>
      <use x="140.185547" xlink:href="#DejaVuSans-45"/>
      <use x="176.269531" xlink:href="#DejaVuSans-70"/>
      <use x="233.789062" xlink:href="#DejaVuSans-66"/>
      <use x="302.376953" xlink:href="#DejaVuSans-71"/>
      <use x="379.867188" xlink:href="#DejaVuSans-50"/>
     </g>
    </g>
    <g id="line2d_40"/>
    <g id="line2d_41">
     <g>
      <use style="fill:#8c564b;stroke:#8c564b;" x="369.111875" xlink:href="#ma620388fe0" y="317.354713"/>
     </g>
    </g>
    <g id="text_23">
     <!-- DE-FBG3 -->
     <g transform="translate(387.111875 320.854713)scale(0.1 -0.1)">
      <use xlink:href="#DejaVuSans-68"/>
      <use x="77.001953" xlink:href="#DejaVuSans-69"/>
      <use x="140.185547" xlink:href="#DejaVuSans-45"/>
      <use x="176.269531" xlink:href="#DejaVuSans-70"/>
      <use x="233.789062" xlink:href="#DejaVuSans-66"/>
      <use x="302.376953" xlink:href="#DejaVuSans-71"/>
      <use x="379.867188" xlink:href="#DejaVuSans-51"/>
     </g>
    </g>
   </g>
  </g>
 </g>
 <defs>
  <clipPath id="pc42b55182b">
   <rect height="287.1792" width="379.44" x="61.2" y="44.7552"/>
  </clipPath>
 </defs>
</svg>
